<?xml version="1.0" encoding="utf-8"?>
<!-- Generator: Adobe Illustrator 24.0.1, SVG Export Plug-In . SVG Version: 6.00 Build 0)  -->
<svg version="1.1" id="Layer_1" xmlns="http://www.w3.org/2000/svg" xmlns:xlink="http://www.w3.org/1999/xlink" x="0px" y="0px"
	 viewBox="0 0 512 512" style="enable-background:new 0 0 512 512;" xml:space="preserve">
<path style="fill:#F6EAD4;" d="M66.52,444.84h384.71c15.61-21.24,50.41-92.91-9.2-150.55l-0.15-0.14
	c-8.11-7.3-10.92-18.73-7.36-29.04c5.22-15.13,8.11-31.34,8.24-48.21c0.63-84.42-68.88-153.5-153.3-152.37
	c-82.56,1.11-149.14,68.38-149.14,151.21v0.03c0,2.08-0.58,4.12-1.71,5.86c-13.31,20.49-33.5,33.44-64.35,51.37
	C22.75,302.93,10.19,406.03,66.52,444.84z"/>
<g>
	<path style="fill:#F9D087;" d="M334.03,162.36h0.18c1.35,0,2.44-1.09,2.44-2.44v-5.24c0-1.35-1.09-2.44-2.44-2.44h-0.18
		c-1.35,0-2.44,1.09-2.44,2.44v5.24C331.59,161.26,332.68,162.36,334.03,162.36z"/>
	<path style="fill:#231F20;" d="M334.21,163.36h-0.18c-1.9,0-3.44-1.54-3.44-3.44v-5.24c0-1.9,1.54-3.44,3.44-3.44h0.18
		c1.9,0,3.44,1.54,3.44,3.44v5.24C337.65,161.81,336.11,163.36,334.21,163.36z M334.03,153.23c-0.79,0-1.44,0.65-1.44,1.44v5.24
		c0,0.79,0.65,1.44,1.44,1.44h0.18c0.79,0,1.44-0.65,1.44-1.44v-5.24c0-0.79-0.65-1.44-1.44-1.44H334.03z"/>
</g>
<g>
	<path style="fill:#E6E6E6;" d="M115.68,232.04l141.04-87.2c6.69-3.57,14.73-3.54,21.4,0.08l136.51,87.13L310.89,374.91
		c0,0-87.87,7.32-87.87,5.49s-21.97-35.39-29.29-42.72c-7.32-7.32-31.73-20.75-37.83-32.95
		C149.79,292.53,115.68,232.04,115.68,232.04z"/>
	<path style="fill:#231F20;" d="M226.35,381.68c-3.46,0-3.74-0.26-3.98-0.48c-0.18-0.17-0.31-0.43-0.34-0.68
		c-0.72-2.56-21.7-34.81-29-42.11c-2.43-2.43-6.81-5.57-11.89-9.2c-9.8-7.01-22-15.74-26.14-24.02
		c-6.02-12.04-39.84-72.05-40.18-72.66c-0.26-0.47-0.11-1.06,0.35-1.34l141.04-87.2c7.06-3.77,15.42-3.74,22.4,0.05l136.57,87.16
		c0.23,0.15,0.39,0.39,0.44,0.66c0.05,0.27-0.01,0.55-0.17,0.77L311.7,375.5c-0.17,0.24-0.44,0.38-0.73,0.41
		c-0.21,0.02-21.77,1.81-43.27,3.38C242.14,381.16,231.16,381.68,226.35,381.68z M222.03,380.53L222.03,380.53L222.03,380.53z
		 M222.03,380.53L222.03,380.53L222.03,380.53L222.03,380.53z M222.02,380.41C222.02,380.41,222.02,380.41,222.02,380.41
		C222.02,380.41,222.02,380.41,222.02,380.41z M222.02,380.41C222.02,380.41,222.02,380.41,222.02,380.41
		C222.02,380.41,222.02,380.41,222.02,380.41z M223.91,379.97c0.07,0.19,0.1,0.33,0.1,0.43
		C224.01,380.24,223.97,380.09,223.91,379.97z M223.78,379.63c5.11,0.69,53.93-2.96,86.57-5.68L413.2,232.31l-135.61-86.56
		c-6.33-3.43-13.97-3.46-20.39-0.04l-140.17,86.67c4.14,7.35,34.11,60.6,39.76,71.91c3.92,7.83,15.89,16.4,25.51,23.28
		c5.14,3.68,9.59,6.86,12.14,9.41C200.91,343.46,221.34,373.96,223.78,379.63z"/>
</g>
<g>
	<path style="fill:#F9D087;" d="M389.34,139.76l17.44-19.43c1.09-1.21,2.92-1.37,4.2-0.37v0c1.33,1.04,1.58,2.96,0.55,4.3
		l-7.79,10.23l8.66-8.73c1.23-1.24,3.24-1.21,4.44,0.06l2.82,3c1.1,1.17,1.12,3,0.04,4.19l-9.11,10.04c0,0-2.57,17.56-17.06,21.79
		S389.34,139.76,389.34,139.76z"/>
	<path style="fill:#231F20;" d="M390.92,166.27c-1.66,0-3.01-0.54-4.03-1.63c-5.21-5.5,0.81-23.22,1.51-25.22
		c0.04-0.12,0.11-0.24,0.2-0.34l17.44-19.43c1.43-1.6,3.87-1.81,5.56-0.49c1.58,1.24,2,3.44,1.08,5.16c0.6-0.32,1.29-0.47,1.98-0.48
		c1.12,0.02,2.16,0.47,2.92,1.29l2.82,3c1.45,1.54,1.47,3.98,0.05,5.55l-8.91,9.82c-0.43,2.49-3.68,18.2-17.72,22.3
		C392.77,166.12,391.8,166.27,390.92,166.27z M390.22,140.28c-1.82,5.27-5.54,19.13-1.88,22.99c1.03,1.08,2.63,1.29,4.91,0.62
		c13.69-4,16.33-20.81,16.35-20.98c0.03-0.2,0.12-0.38,0.25-0.53l9.11-10.04c0.73-0.8,0.72-2.04-0.02-2.83l-2.82-3
		c-0.39-0.42-0.92-0.65-1.49-0.66c-0.01,0-0.02,0-0.03,0c-0.56,0-1.08,0.22-1.48,0.62l-8.66,8.73c-0.37,0.37-0.97,0.4-1.37,0.05
		s-0.46-0.94-0.14-1.36l7.79-10.23c0.69-0.9,0.52-2.21-0.37-2.91c-0.86-0.68-2.11-0.56-2.84,0.25L390.22,140.28z"/>
</g>
<g>
	<path style="fill:#F9D087;" d="M382.43,155.09l4.31-17.81l10.05-10.19c0,0,5.87,4.28-2.31,9.54c0,0,3.65,5.09,2.65,9.23
		c-1,4.13-9.03,13.64-9.03,13.64"/>
	<path style="fill:#231F20;" d="M388.1,160.49c-0.23,0-0.46-0.08-0.65-0.24c-0.42-0.36-0.47-0.99-0.12-1.41
		c2.19-2.59,8.04-10.03,8.82-13.23c0.88-3.65-2.46-8.36-2.49-8.41c-0.16-0.22-0.22-0.5-0.17-0.77c0.05-0.27,0.21-0.51,0.44-0.65
		c2.49-1.6,3.83-3.27,3.89-4.82c0.04-1.06-0.53-1.94-1.01-2.48l-9.16,9.3l-4.25,17.54c-0.13,0.54-0.67,0.87-1.21,0.74
		c-0.54-0.13-0.87-0.67-0.74-1.21l4.31-17.81c0.04-0.18,0.13-0.34,0.26-0.47l10.04-10.19c0.35-0.35,0.9-0.4,1.3-0.11
		c0.1,0.08,2.53,1.88,2.44,4.74c-0.06,2.06-1.4,4.04-3.97,5.89c1.04,1.72,3.1,5.68,2.25,9.19c-1.04,4.31-8.9,13.65-9.24,14.05
		C388.67,160.37,388.38,160.49,388.1,160.49z"/>
</g>
<g>
	<path style="fill:#FFFFFF;" d="M339.9,160.6l28.44,8.08l14.15-23.42l22.19,13.89l-15.14,24.25c-6.03,9.37-17.12,14.19-28.09,12.2
		l-16.56-2.99"/>
	<path style="fill:#231F20;" d="M366.4,197.05c-1.7,0-3.41-0.15-5.13-0.46l-16.56-2.99c-0.54-0.1-0.9-0.62-0.81-1.16
		c0.1-0.54,0.62-0.91,1.16-0.81l16.56,2.99c10.61,1.92,21.23-2.7,27.07-11.76l14.6-23.39l-20.48-12.82L369.2,169.2
		c-0.23,0.39-0.7,0.57-1.13,0.44l-28.44-8.08c-0.53-0.15-0.84-0.7-0.69-1.24c0.15-0.53,0.7-0.84,1.24-0.69l27.71,7.87l13.75-22.77
		c0.14-0.23,0.36-0.39,0.63-0.46c0.26-0.06,0.54-0.02,0.76,0.13l22.19,13.89c0.47,0.29,0.61,0.91,0.32,1.38l-15.14,24.25
		C385.05,192.22,376,197.05,366.4,197.05z"/>
</g>
<g>
	<path style="fill:#FFFFFF;" d="M221.35,166.53l20.07,21.71l24.27-12.63l11.71,23.41l-25.55,12.81c-10.03,4.86-22,3.2-30.33-4.21
		l-12.58-11.18"/>
	<path style="fill:#231F20;" d="M239.81,215.61c-6.85,0-13.6-2.47-18.96-7.23l-12.58-11.18c-0.41-0.37-0.45-1-0.08-1.41
		c0.37-0.41,1-0.45,1.41-0.08l12.58,11.18c8.06,7.16,19.53,8.75,29.23,4.06l24.65-12.36l-10.81-21.61l-23.37,12.16
		c-0.4,0.21-0.89,0.12-1.2-0.21l-20.07-21.71c-0.38-0.41-0.35-1.04,0.06-1.41c0.4-0.38,1.04-0.35,1.41,0.06L241.63,187l23.59-12.27
		c0.24-0.12,0.52-0.15,0.77-0.06s0.47,0.26,0.59,0.5l11.71,23.41c0.25,0.49,0.05,1.09-0.45,1.34l-25.55,12.81
		C248.31,214.66,244.04,215.61,239.81,215.61z"/>
</g>
<g>
	<path style="fill:#385A65;" d="M178.96,218.87l-34.97,136.34h53.67l7.22-99.92l7.87,99.43h53.82l-36.94-135.85
		C229.64,218.87,178.46,218.37,178.96,218.87z"/>
	<path style="fill:#231F20;" d="M197.66,356.21h-53.67c-0.31,0-0.6-0.14-0.79-0.39s-0.26-0.56-0.18-0.86l34.95-136.26
		c0.01-0.08,0.03-0.16,0.07-0.24c0.36-0.86,0.38-0.92,26.34-0.79c12.65,0.06,25.27,0.19,25.27,0.19c0.45,0,0.84,0.31,0.96,0.74
		l36.94,135.85c0.08,0.3,0.02,0.62-0.17,0.87c-0.19,0.25-0.48,0.39-0.79,0.39h-53.82c-0.52,0-0.96-0.4-1-0.92l-6.83-86.27
		l-6.27,86.75C198.62,355.81,198.18,356.21,197.66,356.21z M145.28,354.21h51.45l7.16-98.99c0.04-0.52,0.47-0.93,0.99-0.93
		c0,0,0,0,0,0c0.52,0,0.96,0.4,1,0.92l7.8,98.51h51.59l-36.39-133.86c-18.24-0.18-44.76-0.33-49.11-0.1L145.28,354.21z"/>
</g>
<g>
	<path style="fill:#FFFFFF;" d="M229.78,218.49h-51.15l1.94-36.97c0.66-12.58,11.05-22.44,23.64-22.44h0
		c12.59,0,22.98,9.86,23.64,22.44L229.78,218.49z"/>
	<path style="fill:#231F20;" d="M229.78,219.49h-51.15c-0.27,0-0.54-0.11-0.73-0.31c-0.19-0.2-0.29-0.47-0.27-0.74l1.94-36.97
		c0.69-13.11,11.51-23.38,24.64-23.38s23.95,10.27,24.64,23.38l1.94,36.97c0.01,0.27-0.08,0.54-0.27,0.74
		C230.31,219.38,230.05,219.49,229.78,219.49z M179.68,217.49h49.05l-1.88-35.92c-0.63-12.05-10.58-21.49-22.64-21.49
		s-22.01,9.44-22.64,21.49L179.68,217.49z"/>
</g>
<g>
	<path style="fill:#F9D087;" d="M204.51,162.36h-0.18c-1.35,0-2.44-1.09-2.44-2.44v-5.24c0-1.35,1.09-2.44,2.44-2.44h0.18
		c1.35,0,2.44,1.09,2.44,2.44v5.24C206.95,161.26,205.86,162.36,204.51,162.36z"/>
	<path style="fill:#231F20;" d="M204.51,163.36h-0.18c-1.9,0-3.44-1.54-3.44-3.44v-5.24c0-1.9,1.54-3.44,3.44-3.44h0.18
		c1.9,0,3.44,1.54,3.44,3.44v5.24C207.95,161.81,206.41,163.36,204.51,163.36z M204.33,153.23c-0.79,0-1.44,0.65-1.44,1.44v5.24
		c0,0.79,0.65,1.44,1.44,1.44h0.18c0.79,0,1.44-0.65,1.44-1.44v-5.24c0-0.79-0.65-1.44-1.44-1.44H204.33z"/>
</g>
<circle style="fill:#231F20;" cx="204.32" cy="130.47" r="20.61"/>
<g>
	<circle style="fill:#F9D087;" cx="191.77" cy="140.35" r="3.51"/>
	<path style="fill:#231F20;" d="M191.77,144.86c-2.49,0-4.51-2.02-4.51-4.51s2.02-4.51,4.51-4.51s4.51,2.02,4.51,4.51
		S194.26,144.86,191.77,144.86z M191.77,137.84c-1.38,0-2.51,1.13-2.51,2.51c0,1.38,1.13,2.51,2.51,2.51s2.51-1.13,2.51-2.51
		C194.28,138.97,193.16,137.84,191.77,137.84z"/>
</g>
<g>
	<circle style="fill:#F9D087;" cx="217.32" cy="140.35" r="3.47"/>
	<path style="fill:#231F20;" d="M217.32,144.82c-2.47,0-4.47-2.01-4.47-4.47s2.01-4.47,4.47-4.47c2.47,0,4.47,2.01,4.47,4.47
		S219.79,144.82,217.32,144.82z M217.32,137.88c-1.36,0-2.47,1.11-2.47,2.47c0,1.36,1.11,2.47,2.47,2.47s2.47-1.11,2.47-2.47
		C219.79,138.99,218.68,137.88,217.32,137.88z"/>
</g>
<g>
	<path style="fill:#F9D087;" d="M204.03,156.4L204.03,156.4c-6.45,0-11.67-5.22-11.67-11.67v-7.06c0-6.45,5.22-11.67,11.67-11.67h0
		c6.45,0,11.67,5.22,11.67,11.67v7.06C215.7,151.18,210.48,156.4,204.03,156.4z"/>
	<path style="fill:#231F20;" d="M204.03,157.4c-6.99,0-12.67-5.68-12.67-12.67v-7.06c0-6.99,5.68-12.67,12.67-12.67
		s12.67,5.68,12.67,12.67v7.06C216.7,151.72,211.02,157.4,204.03,157.4z M204.03,127.01c-5.88,0-10.67,4.79-10.67,10.67v7.06
		c0,5.88,4.79,10.67,10.67,10.67c5.88,0,10.67-4.79,10.67-10.67v-7.06C214.7,131.79,209.92,127.01,204.03,127.01z"/>
</g>
<circle style="fill:#231E20;" cx="201.95" cy="139.71" r="0.73"/>
<circle style="fill:#231E20;" cx="205.92" cy="139.71" r="0.73"/>
<g>
	<path style="fill:#231E20;" d="M195.05,125.94c0,0,9.87,12.66,19.99,4.5c10.12-8.16-18.07-7.03-18.07-7.03"/>
	<path style="fill:#231E20;" d="M201.33,129.03c0,0-9.23,7.59-9.1,12.8l-1.15-15.75l2.18-2.81l8.33-1.69"/>
	<path style="fill:#231E20;" d="M206.65,129.03c0,0,9.23,7.59,9.1,12.8l1.15-15.75l-2.18-2.81l-8.33-1.69"/>
</g>
<g>
	<path style="fill:#FFFFFF;" d="M198.26,147.35h11.76C210.03,147.35,204.23,156.88,198.26,147.35z"/>
	<g>
		<path style="fill:#231F20;" d="M203.97,152.59c-2.39,0-4.59-1.58-6.55-4.71c-0.19-0.31-0.2-0.7-0.03-1.01
			c0.18-0.32,0.51-0.52,0.88-0.52h11.76c0.36,0,0.69,0.19,0.87,0.51s0.17,0.7-0.02,1.01c-0.12,0.19-2.9,4.69-6.88,4.72
			C203.99,152.59,203.98,152.59,203.97,152.59z M200.2,148.35c1.23,1.49,2.49,2.24,3.76,2.24c0.01,0,0.01,0,0.02,0
			c1.6-0.01,3.05-1.2,4-2.24H200.2z"/>
	</g>
</g>
<polyline style="fill:#231F20;" points="192.16,135.97 192.16,143.86 193.74,143.86 193.74,134.3 "/>
<polyline style="fill:#231F20;" points="214.34,135.97 214.34,143.86 215.92,143.86 215.92,134.3 "/>
<g>
	<path style="fill:#F9D087;" d="M182.28,215.65l8.76,14.02l3.01,13.54c0.29,1.29-0.39,2.6-1.61,3.11h0
		c-1.44,0.61-3.1-0.12-3.63-1.59l-3.28-9.06l1.45,10.6c0.17,1.27-0.55,2.48-1.75,2.93l-6.95,2.61c-1.58,0.59-3.32-0.37-3.64-2.03
		l-2.88-14.61c0,0-6.01-8.26-3.5-17.27"/>
	<path style="fill:#231F20;" d="M177.33,252.98c-0.63,0-1.25-0.16-1.82-0.47c-0.96-0.54-1.63-1.46-1.84-2.54l-2.84-14.4
		c-0.92-1.34-5.95-9.22-3.53-17.94c0.15-0.53,0.7-0.84,1.23-0.7c0.53,0.15,0.84,0.7,0.7,1.23c-2.34,8.42,3.29,16.33,3.35,16.41
		c0.08,0.12,0.14,0.25,0.17,0.39l2.88,14.61c0.1,0.5,0.41,0.93,0.86,1.18c0.45,0.25,0.97,0.29,1.45,0.11l6.95-2.61
		c0.76-0.29,1.22-1.05,1.11-1.86l-1.46-10.6c-0.07-0.51,0.25-0.98,0.75-1.11c0.5-0.12,1.01,0.15,1.18,0.63l3.28,9.06
		c0.16,0.45,0.5,0.81,0.94,1c0.44,0.19,0.93,0.2,1.37,0.01c0.77-0.33,1.2-1.16,1.02-1.97l-2.97-13.37l-8.67-13.87
		c-0.29-0.47-0.15-1.08,0.32-1.38c0.47-0.29,1.09-0.15,1.38,0.32l8.76,14.02c0.06,0.1,0.1,0.2,0.13,0.31l3.01,13.54
		c0.39,1.76-0.53,3.55-2.2,4.25c-0.95,0.4-2,0.39-2.95-0.02c-0.95-0.41-1.66-1.18-2.01-2.15l-0.06-0.16l0.17,1.23
		c0.24,1.74-0.74,3.39-2.39,4l-6.95,2.61C178.22,252.9,177.77,252.98,177.33,252.98z"/>
</g>
<g>
	<line style="fill:#F9D087;" x1="181.78" y1="250.65" x2="178.78" y2="236.17"/>
	<path style="fill:#231F20;" d="M181.78,251.65c-0.46,0-0.88-0.32-0.98-0.8l-3-14.48c-0.11-0.54,0.24-1.07,0.78-1.18
		c0.54-0.11,1.07,0.23,1.18,0.78l3,14.48c0.11,0.54-0.24,1.07-0.78,1.18C181.91,251.64,181.85,251.65,181.78,251.65z"/>
</g>
<g>
	<path style="fill:#FFFFFF;" d="M190.45,163.55l-32.82,22.34c-6.96,4.74-9.27,13.95-5.37,21.41l10.71,20.47l24.6-11.03l-10.7-19.61
		l21.22-12.44"/>
	<path style="fill:#231F20;" d="M162.98,228.77c-0.36,0-0.71-0.2-0.89-0.54l-10.71-20.47c-4.14-7.92-1.69-17.68,5.69-22.7
		l32.82-22.34c0.46-0.31,1.08-0.19,1.39,0.26c0.31,0.46,0.19,1.08-0.26,1.39l-32.82,22.34c-6.55,4.46-8.71,13.11-5.04,20.12
		l10.27,19.64l22.76-10.2L176,197.61c-0.26-0.47-0.09-1.07,0.37-1.34l21.22-12.44c0.48-0.28,1.09-0.12,1.37,0.36
		s0.12,1.09-0.36,1.37l-20.38,11.95l10.23,18.76c0.13,0.24,0.16,0.53,0.07,0.8c-0.09,0.26-0.28,0.48-0.54,0.59l-24.6,11.03
		C163.25,228.74,163.12,228.77,162.98,228.77z"/>
</g>
<g>
	<path style="fill:#FFFFFF;" d="M317.19,166.53l-20.07,21.71l-24.27-12.63l-11.71,23.41l25.55,12.81c10.03,4.86,22,3.2,30.33-4.21
		l12.58-11.18"/>
	<path style="fill:#231F20;" d="M298.73,215.61c-4.23,0-8.49-0.94-12.47-2.87l-25.56-12.82c-0.49-0.25-0.69-0.85-0.45-1.34
		l11.71-23.41c0.12-0.24,0.33-0.42,0.59-0.5c0.25-0.08,0.53-0.06,0.77,0.06L296.91,187l19.55-21.15c0.38-0.41,1.01-0.43,1.41-0.06
		s0.43,1.01,0.06,1.41l-20.07,21.71c-0.31,0.33-0.8,0.42-1.2,0.21l-23.37-12.16l-10.81,21.61l24.66,12.37
		c9.69,4.69,21.16,3.1,29.22-4.06l12.58-11.18c0.41-0.37,1.04-0.33,1.41,0.08c0.37,0.41,0.33,1.04-0.08,1.41l-12.58,11.18
		C312.34,213.14,305.58,215.61,298.73,215.61z"/>
</g>
<g>
	<path style="fill:#385A65;" d="M359.58,218.87l34.97,136.34h-53.67l-7.22-99.92l-7.87,99.43h-53.82l36.94-135.85
		C308.9,218.87,360.08,218.37,359.58,218.87z"/>
	<path style="fill:#231F20;" d="M394.55,356.21h-53.67c-0.52,0-0.96-0.41-1-0.93l-6.27-86.75l-6.83,86.27
		c-0.04,0.52-0.48,0.92-1,0.92h-53.82c-0.31,0-0.61-0.15-0.79-0.39c-0.19-0.25-0.25-0.57-0.17-0.87l36.94-135.85
		c0.12-0.43,0.51-0.73,0.96-0.74c0,0,12.62-0.12,25.27-0.19c25.96-0.13,25.98-0.08,26.34,0.79c0.03,0.08,0.05,0.16,0.07,0.24
		l34.95,136.26c0.08,0.3,0.01,0.62-0.18,0.86S394.86,356.21,394.55,356.21z M341.81,354.21h51.45l-34.48-134.45
		c-4.35-0.23-30.87-0.08-49.11,0.1l-36.39,133.86h51.59l7.8-98.51c0.04-0.52,0.48-0.92,1-0.92c0,0,0,0,0,0
		c0.52,0,0.96,0.41,0.99,0.93L341.81,354.21z"/>
</g>
<g>
	<path style="fill:#FFFFFF;" d="M358.3,187.58l1.62,30.91h-51.15l1.94-36.97c0.66-12.58,11.05-22.44,23.64-22.44h0
		c4.16,0,10.45,2.01,13.86,3.91l5.67,1.65"/>
	<path style="fill:#231F20;" d="M359.92,219.49h-51.16c-0.27,0-0.54-0.11-0.73-0.31c-0.19-0.2-0.29-0.47-0.27-0.74l1.94-36.97
		c0.69-13.11,11.51-23.38,24.64-23.38c4.34,0,10.74,2.05,14.25,3.98l5.57,1.62c0.53,0.15,0.83,0.71,0.68,1.24
		c-0.15,0.53-0.71,0.84-1.24,0.68l-5.67-1.65c-0.07-0.02-0.14-0.05-0.21-0.09c-3.28-1.83-9.44-3.78-13.37-3.78
		c-12.07,0-22.01,9.44-22.64,21.49l-1.88,35.92h49.05l-1.56-29.86c-0.03-0.55,0.4-1.02,0.95-1.05c0.57-0.03,1.02,0.39,1.05,0.95
		l1.62,30.91c0.01,0.27-0.08,0.54-0.27,0.74C360.46,219.38,360.2,219.49,359.92,219.49z"/>
</g>
<g>
	<path style="fill:#74A0AA;" d="M241.91,218.87l-34.97,136.34h53.67l7.22-99.92l7.87,99.43h53.82l-36.94-135.85
		C292.59,218.87,241.41,218.37,241.91,218.87z"/>
	<path style="fill:#231F20;" d="M260.61,356.21h-53.67c-0.31,0-0.6-0.14-0.79-0.39s-0.26-0.56-0.18-0.86l34.95-136.26
		c0.01-0.08,0.03-0.16,0.07-0.24c0.36-0.86,0.39-0.92,26.35-0.79c12.65,0.06,25.27,0.19,25.27,0.19c0.45,0,0.84,0.31,0.96,0.74
		l36.94,135.85c0.08,0.3,0.02,0.62-0.17,0.87c-0.19,0.25-0.48,0.39-0.79,0.39H275.7c-0.52,0-0.96-0.4-1-0.92l-6.83-86.27
		l-6.27,86.75C261.57,355.81,261.13,356.21,260.61,356.21z M208.23,354.21h51.45l7.16-98.99c0.04-0.52,0.47-0.93,0.99-0.93
		c0,0,0,0,0,0c0.52,0,0.96,0.4,1,0.92l7.8,98.51h51.59l-36.39-133.86c-18.24-0.17-44.76-0.33-49.11-0.1L208.23,354.21z"/>
</g>
<g>
	<path style="fill:#FFFFFF;" d="M292.72,218.49h-51.15l1.94-36.97c0.66-12.58,11.05-22.44,23.64-22.44h0
		c12.59,0,22.98,9.86,23.64,22.44L292.72,218.49z"/>
	<path style="fill:#231F20;" d="M292.72,219.49h-51.15c-0.27,0-0.54-0.11-0.73-0.31c-0.19-0.2-0.29-0.47-0.27-0.74l1.94-36.97
		c0.69-13.11,11.51-23.38,24.64-23.38s23.95,10.27,24.64,23.38l1.94,36.97c0.01,0.27-0.08,0.54-0.27,0.74
		C293.26,219.38,293,219.49,292.72,219.49z M242.62,217.49h49.05l-1.88-35.92c-0.63-12.05-10.58-21.49-22.64-21.49
		s-22.01,9.44-22.64,21.49L242.62,217.49z"/>
</g>
<g>
	<path style="fill:#FFFFFF;stroke:#231F20;stroke-width:2;stroke-linecap:round;stroke-linejoin:round;stroke-miterlimit:10;" d="
		M341.02,187.59"/>
</g>
<g>
	<path style="fill:#F9D087;" d="M260.1,211.72l-6.93-10.09c0,0-4.41,1.89-1.68,6.3l2.31,5.67"/>
	<path style="fill:#231F20;" d="M253.8,214.62c-0.39,0-0.77-0.24-0.93-0.62l-2.28-5.6c-0.97-1.59-1.23-3.1-0.79-4.49
		c0.69-2.18,2.88-3.14,2.98-3.18c0.44-0.19,0.95-0.04,1.22,0.35l6.93,10.09c0.31,0.46,0.2,1.08-0.26,1.39
		c-0.45,0.31-1.08,0.2-1.39-0.26l-6.4-9.31c-0.44,0.32-0.96,0.84-1.17,1.54c-0.26,0.83-0.04,1.8,0.64,2.9
		c0.03,0.05,0.05,0.1,0.08,0.15l2.31,5.67c0.21,0.51-0.04,1.1-0.55,1.3C254.05,214.59,253.92,214.62,253.8,214.62z"/>
</g>
<g>
	<path style="fill:#F9D087;" d="M261.59,212.35l-19.09-2.83c0,0-4.24,2.12-2.12,5.89c0,0-3.53,4.95,0.24,8.25
		c0,0-0.94,5.66,1.65,6.6c2.59,0.94,18.38,0.71,24.98-2.83S261.59,212.35,261.59,212.35z"/>
	<path style="fill:#231F20;" d="M248.07,231.73c-2.95,0-5.26-0.21-6.15-0.53c-2.83-1.03-2.57-5.53-2.37-7.17
		c-2.73-2.81-1.58-6.62-0.33-8.69c-0.49-1.11-0.58-2.21-0.25-3.27c0.68-2.23,2.98-3.4,3.08-3.45c0.18-0.09,0.39-0.13,0.59-0.09
		l19.09,2.83c0.2,0.03,0.39,0.12,0.54,0.26c0.88,0.83,8.56,8.23,7.88,13.34c-0.19,1.44-1.03,2.6-2.43,3.36
		C262.98,230.85,254.16,231.73,248.07,231.73z M242.7,210.56c-0.47,0.3-1.49,1.04-1.81,2.11c-0.21,0.7-0.09,1.44,0.36,2.25
		c0.19,0.34,0.17,0.76-0.06,1.07c-0.12,0.17-2.95,4.26,0.08,6.91c0.26,0.23,0.38,0.57,0.33,0.92c-0.25,1.52-0.34,5,1,5.49
		c2.39,0.87,17.85,0.62,24.17-2.77c0.85-0.45,1.29-1.04,1.4-1.85c0.45-3.36-4.73-9.17-7.04-11.4L242.7,210.56z"/>
</g>
<g>
	<path style="fill:#FFFFFF;" d="M286.37,168.85c0,0,28.79,31.52,27.03,47.29c-2.25,20.14-51.96,17.32-51.96,17.32v-26.22h27.15
		l-15.92-22"/>
	<path style="fill:#231F20;" d="M267.88,234.62c-3.63,0-6.07-0.13-6.5-0.15c-0.53-0.03-0.94-0.47-0.94-1v-26.22c0-0.55,0.45-1,1-1
		h25.2l-14.77-20.42c-0.32-0.45-0.22-1.07,0.22-1.4c0.45-0.32,1.07-0.22,1.4,0.22l15.92,22c0.22,0.3,0.25,0.71,0.08,1.04
		c-0.17,0.33-0.51,0.54-0.89,0.54h-26.15v24.26c6.8,0.25,48.02,1.02,49.97-16.48c1.69-15.14-26.48-46.19-26.77-46.51
		c-0.37-0.41-0.34-1.04,0.06-1.41c0.41-0.37,1.04-0.35,1.41,0.06c1.19,1.3,29.07,32.04,27.28,48.08
		C312.54,232.76,281.67,234.62,267.88,234.62z"/>
</g>
<g>
	<path style="fill:#F9D087;" d="M264.24,162.36h-0.18c-1.35,0-2.44-1.09-2.44-2.44v-5.24c0-1.35,1.09-2.44,2.44-2.44h0.18
		c1.35,0,2.44,1.09,2.44,2.44v5.24C266.69,161.26,265.59,162.36,264.24,162.36z"/>
	<path style="fill:#231F20;" d="M264.24,163.36h-0.18c-1.9,0-3.44-1.54-3.44-3.44v-5.24c0-1.9,1.54-3.44,3.44-3.44h0.18
		c1.9,0,3.44,1.54,3.44,3.44v5.24C267.69,161.81,266.14,163.36,264.24,163.36z M264.07,153.23c-0.79,0-1.44,0.65-1.44,1.44v5.24
		c0,0.79,0.65,1.44,1.44,1.44h0.18c0.79,0,1.44-0.65,1.44-1.44v-5.24c0-0.79-0.65-1.44-1.44-1.44H264.07z"/>
</g>
<ellipse style="fill:#231F20;" cx="263.67" cy="139.4" rx="24.19" ry="16.93"/>
<circle style="fill:#231F20;" cx="264.51" cy="134.39" r="20.85"/>
<g>
	<circle style="fill:#F9D087;" cx="251.85" cy="139.65" r="3.06"/>
	<path style="fill:#231F20;" d="M251.85,143.71c-2.24,0-4.06-1.82-4.06-4.06s1.82-4.06,4.06-4.06s4.06,1.82,4.06,4.06
		S254.08,143.71,251.85,143.71z M251.85,137.59c-1.14,0-2.06,0.92-2.06,2.06c0,1.14,0.92,2.06,2.06,2.06c1.14,0,2.06-0.92,2.06-2.06
		C253.9,138.51,252.98,137.59,251.85,137.59z"/>
</g>
<g>
	<circle style="fill:#F9D087;" cx="277.44" cy="139.65" r="3.06"/>
	<path style="fill:#231F20;" d="M277.44,143.71c-2.24,0-4.06-1.82-4.06-4.06s1.82-4.06,4.06-4.06s4.06,1.82,4.06,4.06
		S279.67,143.71,277.44,143.71z M277.44,137.59c-1.13,0-2.06,0.92-2.06,2.06c0,1.14,0.92,2.06,2.06,2.06c1.14,0,2.06-0.92,2.06-2.06
		C279.5,138.51,278.57,137.59,277.44,137.59z"/>
</g>
<g>
	<path style="fill:#F9D087;" d="M264.45,155.89L264.45,155.89c-6.52,0-11.81-5.29-11.81-11.81v-7.14c0-6.52,5.29-11.81,11.81-11.81
		h0c6.52,0,11.81,5.29,11.81,11.81v7.14C276.26,150.6,270.97,155.89,264.45,155.89z"/>
	<path style="fill:#231F20;" d="M264.45,156.89c-7.06,0-12.81-5.75-12.81-12.81v-7.14c0-7.06,5.75-12.81,12.81-12.81
		c7.06,0,12.81,5.75,12.81,12.81v7.14C277.26,151.14,271.51,156.89,264.45,156.89z M264.45,126.13c-5.96,0-10.81,4.85-10.81,10.81
		v7.14c0,5.96,4.85,10.81,10.81,10.81s10.81-4.85,10.81-10.81v-7.14C275.26,130.98,270.41,126.13,264.45,126.13z"/>
</g>
<path style="fill:#231E20;" d="M265.65,123.19c0,0-1.34,14.42-12.76,13.39l-5.42-6.81c0,0,6.49-9.04,6.99-9.15
	c0.5-0.11,6.09-1.96,6.09-1.96l2-0.11h2h0.7"/>
<path style="fill:#231F20;" d="M262.39,123.19c0,0,1.5,14.42,14.26,13.39l6.06-6.81c0,0-7.25-9.04-7.81-9.15
	c-0.56-0.11-6.81-1.96-6.81-1.96l-2.23-0.11h-2.23h-0.78"/>
<g>
	<path style="fill:#FFFFFF;" d="M259.42,147.76h9.09C268.5,147.76,264.03,155.12,259.42,147.76z"/>
	<g>
		<path style="fill:#231F20;" d="M263.82,152.03c-1.93,0-3.7-1.26-5.25-3.74c-0.19-0.31-0.2-0.7-0.03-1.02
			c0.18-0.32,0.51-0.52,0.88-0.52h9.09c0.36,0,0.69,0.19,0.87,0.51c0.18,0.31,0.17,0.7-0.02,1.01c-0.09,0.15-2.31,3.73-5.51,3.75
			C263.84,152.03,263.83,152.03,263.82,152.03z M261.42,148.76c0.8,0.85,1.62,1.28,2.42,1.27c0.94,0,1.85-0.6,2.56-1.27H261.42z"/>
	</g>
</g>
<path style="fill:#231E20;" d="M256.17,135.9c0,0-3.19,2.52-3.45,6.37v-9.69"/>
<path style="fill:#231E20;" d="M272.83,135.9c0,0,3.19,2.52,3.45,6.37v-9.69"/>
<g>
	<circle style="fill:#231E20;" cx="262.37" cy="140.54" r="0.62"/>
	<path style="fill:#231E20;" d="M262.37,141.36c-0.46,0-0.83-0.37-0.83-0.83c0-0.46,0.37-0.83,0.83-0.83c0.46,0,0.83,0.37,0.83,0.83
		C263.2,140.99,262.83,141.36,262.37,141.36z M262.37,140.13c-0.22,0-0.41,0.18-0.41,0.41c0,0.22,0.18,0.41,0.41,0.41
		c0.22,0,0.41-0.18,0.41-0.41C262.78,140.31,262.6,140.13,262.37,140.13z"/>
</g>
<g>
	<circle style="fill:#231E20;" cx="265.73" cy="140.54" r="0.62"/>
	<path style="fill:#231E20;" d="M265.73,141.36c-0.45,0-0.83-0.37-0.83-0.83c0-0.46,0.37-0.83,0.83-0.83c0.46,0,0.83,0.37,0.83,0.83
		C266.56,140.99,266.19,141.36,265.73,141.36z M265.73,140.13c-0.22,0-0.41,0.18-0.41,0.41c0,0.22,0.18,0.41,0.41,0.41
		s0.41-0.18,0.41-0.41C266.14,140.31,265.96,140.13,265.73,140.13z"/>
</g>
<g>
	<line style="fill:#FFFFFF;" x1="417.71" y1="127.35" x2="408.36" y2="137.23"/>
	<path style="fill:#231F20;" d="M408.36,138.23c-0.25,0-0.49-0.09-0.69-0.27c-0.4-0.38-0.42-1.01-0.04-1.41l9.35-9.88
		c0.38-0.4,1.01-0.42,1.41-0.04c0.4,0.38,0.42,1.01,0.04,1.41l-9.35,9.88C408.88,138.12,408.62,138.23,408.36,138.23z"/>
</g>
<g>
	<g>
		<path style="fill:#FFA800;" d="M254.79,339.18L115.68,232.04V436.8c0,4.18,3.39,7.57,7.57,7.57h283.8c4.18,0,7.57-3.39,7.57-7.57
			V232.04L281.9,338.89C274.02,345.23,262.81,345.36,254.79,339.18z"/>
		<path style="fill:#231F20;" d="M407.05,445.37h-283.8c-4.73,0-8.57-3.85-8.57-8.57V232.04c0-0.38,0.22-0.73,0.56-0.9
			c0.34-0.17,0.75-0.13,1.05,0.1L255.4,338.39l0,0c7.68,5.92,18.32,5.8,25.88-0.28L414,231.26c0.3-0.24,0.71-0.29,1.06-0.12
			c0.35,0.17,0.57,0.52,0.57,0.9V436.8C415.63,441.52,411.78,445.37,407.05,445.37z M116.68,234.07V436.8
			c0,3.62,2.95,6.57,6.57,6.57h283.8c3.62,0,6.57-2.95,6.57-6.57V234.12l-131.1,105.54c-8.28,6.66-19.94,6.79-28.35,0.3
			L116.68,234.07z"/>
	</g>
	<g>
		<path style="fill:#231F20;" d="M412.03,442.5c-0.26,0-0.52-0.1-0.72-0.3L298.34,325.34c-0.38-0.4-0.37-1.03,0.02-1.41
			c0.4-0.38,1.03-0.37,1.41,0.02L412.75,440.8c0.38,0.4,0.37,1.03-0.02,1.41C412.53,442.4,412.28,442.5,412.03,442.5z"/>
	</g>
	<g>
		<path style="fill:#231F20;" d="M117.87,442.5c-0.26,0-0.53-0.1-0.72-0.31c-0.38-0.4-0.37-1.03,0.03-1.41L236.53,326.8
			c0.4-0.38,1.03-0.37,1.41,0.03c0.38,0.4,0.37,1.03-0.03,1.41L118.56,442.22C118.37,442.4,118.12,442.5,117.87,442.5z"/>
	</g>
</g>
<g>
	<g>
		<path style="fill:#FFA800;" d="M98.08,202.44h37.42c1.4,0,2.53-1.13,2.53-2.53v-20.26c0-1.4-1.13-2.53-2.53-2.53H98.08
			c-1.4,0-2.53,1.13-2.53,2.53v20.26C95.55,201.3,96.69,202.44,98.08,202.44z"/>
	</g>
	<polyline style="fill:#FFA800;" points="129.03,200.75 129.88,212 116.37,200.18 	"/>
</g>
<g>
	<g>
		<path style="fill:#FFA800;" d="M439.86,205.85h-37.42c-1.4,0-2.53-1.13-2.53-2.53v-20.26c0-1.4,1.13-2.53,2.53-2.53h37.42
			c1.4,0,2.53,1.13,2.53,2.53v20.26C442.39,204.71,441.25,205.85,439.86,205.85z"/>
	</g>
	<polyline style="fill:#FFA800;" points="408.91,204.16 408.06,215.41 421.57,203.6 	"/>
</g>
<g>
	<g>
		
			<ellipse transform="matrix(0.783 -0.622 0.622 0.783 -157.345 370.6084)" style="fill:#385A65;" cx="452.47" cy="410.81" rx="49.21" ry="28.59"/>
		<g>
			<path style="fill:#FFFFFF;" d="M413.46,442.55c-0.18-0.08-0.35-0.2-0.48-0.37c-0.42-0.53-0.33-1.3,0.2-1.72l76.27-60.59
				c0.53-0.42,1.3-0.33,1.72,0.2c0.42,0.53,0.33,1.3-0.2,1.72l-76.27,60.59C414.34,442.67,413.86,442.72,413.46,442.55z"/>
		</g>
		<g>
			<g>
				<path style="fill:#FFFFFF;" d="M434.88,425.88c-0.53-0.23-0.85-0.81-0.72-1.4l6.6-29.58c0.15-0.66,0.8-1.08,1.47-0.93
					c0.66,0.14,1.08,0.8,0.93,1.47l-6.6,29.58c-0.15,0.66-0.8,1.08-1.47,0.93C435.02,425.93,434.95,425.91,434.88,425.88z"/>
			</g>
			<g>
				<path style="fill:#FFFFFF;" d="M456.09,409.03c-0.51-0.22-0.83-0.77-0.73-1.34l3.99-22.39c0.12-0.67,0.76-1.11,1.42-0.99
					c0.67,0.12,1.11,0.76,0.99,1.42l-3.99,22.39c-0.12,0.67-0.76,1.11-1.42,0.99C456.26,409.09,456.17,409.07,456.09,409.03z"/>
			</g>
		</g>
		<g>
			<g>
				<path style="fill:#FFFFFF;" d="M434.71,425.66c-0.44-0.19-0.75-0.63-0.75-1.14c0-0.68,0.56-1.22,1.24-1.22l30.31,0.26
					c0.67,0,1.22,0.56,1.22,1.24c-0.01,0.68-0.56,1.22-1.24,1.22l-30.31-0.26C435.02,425.76,434.86,425.72,434.71,425.66z"/>
			</g>
			<g>
				<path style="fill:#FFFFFF;" d="M455.92,408.82c-0.46-0.2-0.77-0.66-0.74-1.19c0.03-0.68,0.61-1.2,1.29-1.16l22.71,1.17
					c0.68,0.03,1.2,0.61,1.16,1.29c-0.03,0.68-0.61,1.2-1.29,1.16l-22.71-1.17C456.19,408.9,456.05,408.87,455.92,408.82z"/>
			</g>
		</g>
	</g>
	<g>
		
			<ellipse transform="matrix(0.5928 -0.8053 0.8053 0.5928 -163.3606 435.7519)" style="fill:#385A65;" cx="349.24" cy="379.42" rx="13.64" ry="23.48"/>
		<g>
			<path style="fill:#FFFFFF;" d="M368.73,393.42c-0.01,0.09-0.05,0.18-0.11,0.27c-0.19,0.26-0.56,0.32-0.82,0.12l-37.42-27.54
				c-0.26-0.19-0.32-0.56-0.12-0.82c0.19-0.26,0.56-0.32,0.82-0.12l37.42,27.54C368.67,393,368.75,393.22,368.73,393.42z"/>
		</g>
		<g>
			<g>
				<path style="fill:#FFFFFF;" d="M358.37,385.64c-0.04,0.27-0.27,0.49-0.55,0.5l-14.44,0.66c-0.32,0.01-0.6-0.24-0.61-0.56
					c-0.02-0.32,0.24-0.6,0.56-0.61l14.44-0.66c0.32-0.01,0.6,0.24,0.61,0.56C358.38,385.57,358.38,385.61,358.37,385.64z"/>
			</g>
			<g>
				<path style="fill:#FFFFFF;" d="M347.97,377.98c-0.04,0.26-0.25,0.48-0.53,0.5l-10.81,0.96c-0.32,0.03-0.61-0.21-0.64-0.53
					c-0.03-0.32,0.21-0.61,0.53-0.64l10.81-0.96c0.32-0.03,0.61,0.21,0.64,0.53C347.98,377.89,347.98,377.94,347.97,377.98z"/>
			</g>
		</g>
		<g>
			<g>
				<path style="fill:#FFFFFF;" d="M358.3,385.75c-0.03,0.23-0.2,0.42-0.43,0.49c-0.31,0.08-0.63-0.1-0.71-0.42l-3.67-13.99
					c-0.08-0.31,0.1-0.63,0.42-0.71c0.31-0.08,0.63,0.1,0.72,0.42l3.67,13.99C358.3,385.59,358.31,385.67,358.3,385.75z"/>
			</g>
			<g>
				<path style="fill:#FFFFFF;" d="M347.89,378.09c-0.03,0.24-0.21,0.44-0.46,0.49c-0.32,0.07-0.63-0.13-0.7-0.45l-2.3-10.6
					c-0.07-0.32,0.13-0.63,0.45-0.7c0.32-0.07,0.63,0.13,0.7,0.45l2.3,10.6C347.9,377.95,347.9,378.02,347.89,378.09z"/>
			</g>
		</g>
	</g>
	<g>
		
			<ellipse transform="matrix(0.508 -0.8614 0.8614 0.508 -88.2896 561.66)" style="fill:#385A65;" cx="447.49" cy="358.11" rx="21.28" ry="12.36"/>
		<g>
			<path style="fill:#FFFFFF;" d="M436.66,376.97c-0.09,0-0.17-0.03-0.25-0.07c-0.25-0.15-0.34-0.47-0.19-0.73l21.39-36.27
				c0.15-0.25,0.47-0.34,0.73-0.19c0.25,0.15,0.34,0.47,0.19,0.73l-21.39,36.27C437.03,376.88,436.85,376.98,436.66,376.97z"/>
		</g>
		<g>
			<g>
				<path style="fill:#FFFFFF;" d="M442.72,366.92c-0.25-0.01-0.47-0.2-0.51-0.45l-1.92-12.96c-0.04-0.29,0.16-0.56,0.45-0.6
					c0.29-0.05,0.56,0.16,0.6,0.45l1.92,12.96c0.04,0.29-0.16,0.56-0.45,0.6C442.79,366.92,442.76,366.92,442.72,366.92z"/>
			</g>
			<g>
				<path style="fill:#FFFFFF;" d="M448.67,356.84c-0.24-0.01-0.45-0.18-0.5-0.43l-1.86-9.65c-0.06-0.29,0.13-0.57,0.42-0.62
					c0.29-0.05,0.57,0.13,0.62,0.42l1.86,9.65c0.06,0.29-0.13,0.57-0.42,0.62C448.75,356.83,448.71,356.84,448.67,356.84z"/>
			</g>
		</g>
		<g>
			<g>
				<path style="fill:#FFFFFF;" d="M442.62,366.86c-0.21-0.01-0.4-0.14-0.48-0.34c-0.1-0.27,0.04-0.58,0.31-0.68l12.27-4.59
					c0.27-0.1,0.58,0.04,0.68,0.31c0.1,0.28-0.04,0.58-0.31,0.68l-12.27,4.59C442.76,366.85,442.69,366.86,442.62,366.86z"/>
			</g>
			<g>
				<path style="fill:#FFFFFF;" d="M448.57,356.77c-0.22-0.01-0.41-0.15-0.49-0.37c-0.09-0.28,0.06-0.58,0.34-0.67l9.35-3.05
					c0.28-0.09,0.58,0.06,0.67,0.34c0.09,0.28-0.06,0.58-0.34,0.67l-9.35,3.05C448.69,356.77,448.63,356.78,448.57,356.77z"/>
			</g>
		</g>
	</g>
	<g>
		
			<ellipse transform="matrix(0.876 -0.4823 0.4823 0.876 -122.5983 217.3012)" style="fill:#74A0AA;" cx="361.28" cy="347.06" rx="10.92" ry="18.8"/>
		<g>
			<path style="fill:#FFFFFF;" d="M370.74,363.79c-0.04,0.06-0.1,0.12-0.17,0.16c-0.23,0.12-0.51,0.04-0.64-0.18l-17.95-32.6
				c-0.12-0.23-0.04-0.51,0.18-0.64c0.23-0.12,0.51-0.04,0.64,0.18l17.95,32.6C370.85,363.46,370.83,363.65,370.74,363.79z"/>
		</g>
		<g>
			<g>
				<path style="fill:#FFFFFF;" d="M365.83,354.65c-0.12,0.19-0.36,0.27-0.57,0.18l-10.72-4.38c-0.24-0.1-0.36-0.37-0.26-0.61
					c0.09-0.24,0.37-0.35,0.61-0.26l10.72,4.38c0.24,0.1,0.36,0.37,0.26,0.61C365.86,354.6,365.85,354.63,365.83,354.65z"/>
			</g>
			<g>
				<path style="fill:#FFFFFF;" d="M360.84,345.59c-0.12,0.18-0.34,0.26-0.55,0.19l-8.18-2.93c-0.24-0.09-0.37-0.36-0.28-0.6
					c0.09-0.24,0.36-0.37,0.6-0.28l8.18,2.93c0.24,0.09,0.37,0.36,0.28,0.6C360.88,345.53,360.86,345.56,360.84,345.59z"/>
			</g>
		</g>
		<g>
			<g>
				<path style="fill:#FFFFFF;" d="M365.74,354.7c-0.1,0.15-0.28,0.24-0.48,0.21c-0.26-0.05-0.42-0.29-0.38-0.54l2.03-11.4
					c0.04-0.25,0.29-0.43,0.54-0.38c0.26,0.05,0.43,0.29,0.38,0.54l-2.03,11.4C365.8,354.59,365.77,354.65,365.74,354.7z"/>
			</g>
			<g>
				<path style="fill:#FFFFFF;" d="M360.75,345.64c-0.1,0.16-0.3,0.25-0.5,0.2c-0.25-0.06-0.41-0.31-0.36-0.56l1.89-8.48
					c0.06-0.25,0.31-0.41,0.56-0.36s0.41,0.31,0.36,0.56l-1.89,8.48C360.8,345.54,360.78,345.59,360.75,345.64z"/>
			</g>
		</g>
	</g>
	<g>
		
			<ellipse transform="matrix(0.9754 -0.2202 0.2202 0.9754 -76.9489 98.3247)" style="fill:#74A0AA;" cx="402.47" cy="394.24" rx="29.76" ry="51.23"/>
		<g>
			<path style="fill:#FFFFFF;" d="M414.59,445.18c-0.16,0.14-0.34,0.24-0.56,0.28c-0.69,0.16-1.37-0.28-1.53-0.97l-22.33-98.9
				c-0.16-0.69,0.28-1.37,0.97-1.53c0.69-0.16,1.37,0.28,1.53,0.97l22.33,98.9C415.11,444.41,414.94,444.88,414.59,445.18z"/>
		</g>
		<g>
			<g>
				<path style="fill:#FFFFFF;" d="M408.65,417.55c-0.45,0.4-1.14,0.43-1.63,0.04l-24.75-19.56c-0.55-0.44-0.65-1.24-0.21-1.8
					c0.43-0.55,1.24-0.65,1.8-0.21l24.75,19.56c0.55,0.44,0.65,1.24,0.21,1.8C408.76,417.44,408.71,417.5,408.65,417.55z"/>
			</g>
			<g>
				<path style="fill:#FFFFFF;" d="M402.44,390.05c-0.44,0.38-1.1,0.43-1.59,0.07l-19.19-13.86c-0.57-0.41-0.7-1.21-0.29-1.78
					c0.41-0.57,1.21-0.7,1.78-0.29l19.19,13.86c0.57,0.41,0.7,1.21,0.29,1.78C402.58,389.92,402.51,389.99,402.44,390.05z"/>
			</g>
		</g>
		<g>
			<g>
				<path style="fill:#FFFFFF;" d="M408.37,417.61c-0.38,0.33-0.93,0.42-1.41,0.18c-0.63-0.31-0.89-1.08-0.58-1.71l13.95-28.3
					c0.31-0.63,1.08-0.89,1.71-0.58c0.63,0.31,0.89,1.08,0.58,1.71l-13.95,28.3C408.6,417.37,408.49,417.5,408.37,417.61z"/>
			</g>
			<g>
				<path style="fill:#FFFFFF;" d="M402.16,390.11c-0.39,0.34-0.97,0.42-1.45,0.16c-0.62-0.34-0.85-1.12-0.51-1.73l11.37-20.76
					c0.34-0.62,1.11-0.85,1.73-0.51c0.62,0.34,0.85,1.12,0.51,1.73l-11.37,20.76C402.37,389.9,402.27,390.02,402.16,390.11z"/>
			</g>
		</g>
	</g>
	<g>
		
			<ellipse transform="matrix(0.5939 -0.8046 0.8046 0.5939 -184.8916 480.4764)" style="fill:#385A65;" cx="383.46" cy="423.37" rx="18.68" ry="32.17"/>
		<g>
			<path style="fill:#FFFFFF;" d="M410.14,442.59c-0.02,0.13-0.07,0.25-0.15,0.36c-0.26,0.36-0.76,0.43-1.12,0.17l-51.22-37.81
				c-0.36-0.26-0.43-0.77-0.17-1.12c0.26-0.36,0.76-0.43,1.12-0.17l51.22,37.81C410.07,442.01,410.18,442.3,410.14,442.59z"/>
		</g>
		<g>
			<g>
				<path style="fill:#FFFFFF;" d="M395.97,431.91c-0.05,0.38-0.37,0.67-0.76,0.69l-19.79,0.87c-0.44,0.02-0.82-0.32-0.84-0.77
					c-0.02-0.44,0.32-0.82,0.77-0.84l19.79-0.87c0.44-0.02,0.82,0.32,0.84,0.77C395.98,431.81,395.98,431.86,395.97,431.91z"/>
			</g>
			<g>
				<path style="fill:#FFFFFF;" d="M381.73,421.39c-0.05,0.36-0.35,0.65-0.72,0.69l-14.81,1.29c-0.44,0.04-0.83-0.29-0.87-0.73
					c-0.04-0.44,0.29-0.83,0.73-0.87l14.81-1.29c0.44-0.04,0.83,0.29,0.87,0.73C381.74,421.27,381.74,421.34,381.73,421.39z"/>
			</g>
		</g>
		<g>
			<g>
				<path style="fill:#FFFFFF;" d="M395.86,432.05c-0.04,0.31-0.27,0.58-0.59,0.66c-0.43,0.11-0.87-0.14-0.98-0.57l-5-19.17
					c-0.11-0.42,0.14-0.87,0.57-0.98c0.43-0.11,0.87,0.14,0.98,0.57l5,19.17C395.87,431.84,395.88,431.95,395.86,432.05z"/>
			</g>
			<g>
				<path style="fill:#FFFFFF;" d="M381.62,421.54c-0.05,0.32-0.29,0.6-0.63,0.67c-0.43,0.09-0.86-0.18-0.95-0.62l-3.13-14.53
					c-0.09-0.43,0.18-0.86,0.62-0.95s0.86,0.18,0.95,0.62l3.13,14.53C381.63,421.35,381.63,421.45,381.62,421.54z"/>
			</g>
		</g>
	</g>
</g>
<g>
	<g>
		
			<ellipse transform="matrix(0.783 -0.622 0.622 0.783 -230.065 173.804)" style="fill:#385A65;" cx="134.06" cy="416.62" rx="41" ry="23.81"/>
		<g>
			<path style="fill:#FFFFFF;" d="M101.56,443.07c-0.15-0.06-0.29-0.17-0.4-0.3c-0.35-0.44-0.28-1.08,0.17-1.44l63.53-50.47
				c0.44-0.35,1.09-0.28,1.44,0.17c0.35,0.44,0.28,1.08-0.17,1.44l-63.53,50.47C102.29,443.17,101.89,443.21,101.56,443.07z"/>
		</g>
		<g>
			<g>
				<path style="fill:#FFFFFF;" d="M119.41,429.18c-0.44-0.19-0.7-0.67-0.6-1.16l5.5-24.64c0.12-0.55,0.67-0.9,1.22-0.78
					c0.55,0.12,0.9,0.67,0.78,1.22l-5.5,24.64c-0.12,0.55-0.67,0.9-1.22,0.78C119.52,429.22,119.46,429.2,119.41,429.18z"/>
			</g>
			<g>
				<path style="fill:#FFFFFF;" d="M137.07,415.15c-0.43-0.18-0.69-0.64-0.61-1.12l3.33-18.65c0.1-0.56,0.63-0.93,1.19-0.83
					c0.55,0.1,0.93,0.63,0.83,1.19l-3.33,18.65c-0.1,0.56-0.63,0.93-1.19,0.83C137.21,415.2,137.14,415.17,137.07,415.15z"/>
			</g>
		</g>
		<g>
			<g>
				<path style="fill:#FFFFFF;" d="M119.26,429c-0.37-0.16-0.63-0.52-0.62-0.95c0-0.56,0.47-1.02,1.03-1.01l25.25,0.22
					c0.56,0,1.02,0.47,1.01,1.03c0,0.57-0.47,1.02-1.03,1.01l-25.25-0.22C119.52,429.08,119.39,429.05,119.26,429z"/>
			</g>
			<g>
				<path style="fill:#FFFFFF;" d="M136.93,414.97c-0.38-0.16-0.64-0.55-0.62-0.99c0.03-0.56,0.51-1,1.07-0.97l18.92,0.98
					c0.56,0.03,1,0.51,0.97,1.07c-0.03,0.56-0.51,1-1.07,0.97l-18.92-0.98C137.15,415.04,137.04,415.01,136.93,414.97z"/>
			</g>
		</g>
	</g>
	<g>
		
			<ellipse transform="matrix(0.5928 -0.8053 0.8053 0.5928 -294.9001 197.7088)" style="fill:#385A65;" cx="48.07" cy="390.48" rx="11.36" ry="19.56"/>
		<g>
			<path style="fill:#FFFFFF;" d="M64.3,402.14c-0.01,0.08-0.04,0.15-0.09,0.22c-0.16,0.22-0.46,0.26-0.68,0.1l-31.17-22.94
				c-0.22-0.16-0.26-0.47-0.1-0.68c0.16-0.22,0.46-0.26,0.68-0.1l31.17,22.94C64.25,401.79,64.32,401.97,64.3,402.14z"/>
		</g>
		<g>
			<g>
				<path style="fill:#FFFFFF;" d="M55.68,395.66c-0.03,0.23-0.22,0.41-0.46,0.42l-12.03,0.55c-0.27,0.01-0.5-0.2-0.51-0.47
					c-0.01-0.27,0.2-0.5,0.47-0.51l12.03-0.55c0.27-0.01,0.5,0.2,0.51,0.47C55.68,395.6,55.68,395.63,55.68,395.66z"/>
			</g>
			<g>
				<path style="fill:#FFFFFF;" d="M47.01,389.28c-0.03,0.22-0.21,0.4-0.44,0.42l-9,0.8c-0.27,0.02-0.51-0.17-0.53-0.44
					c-0.02-0.27,0.17-0.51,0.44-0.53l9-0.8c0.27-0.02,0.51,0.17,0.53,0.44C47.02,389.21,47.01,389.25,47.01,389.28z"/>
			</g>
		</g>
		<g>
			<g>
				<path style="fill:#FFFFFF;" d="M55.61,395.75c-0.03,0.19-0.16,0.35-0.36,0.4c-0.26,0.07-0.53-0.09-0.6-0.35l-3.05-11.65
					c-0.07-0.26,0.09-0.53,0.35-0.6c0.26-0.07,0.53,0.09,0.6,0.35l3.05,11.65C55.62,395.62,55.62,395.69,55.61,395.75z"/>
			</g>
			<g>
				<path style="fill:#FFFFFF;" d="M46.94,389.37c-0.03,0.2-0.17,0.36-0.38,0.41c-0.26,0.06-0.52-0.11-0.58-0.37l-1.91-8.83
					c-0.06-0.26,0.11-0.52,0.37-0.58c0.26-0.06,0.52,0.11,0.58,0.37l1.91,8.83C46.95,389.26,46.95,389.31,46.94,389.37z"/>
			</g>
		</g>
	</g>
	<g>
		
			<ellipse transform="matrix(0.508 -0.8614 0.8614 0.508 -257.1427 295.2952)" style="fill:#385A65;" cx="129.91" cy="372.73" rx="17.72" ry="10.3"/>
		<g>
			<path style="fill:#FFFFFF;" d="M120.89,388.44c-0.07,0-0.14-0.02-0.21-0.06c-0.21-0.12-0.28-0.39-0.16-0.61l17.82-30.22
				c0.12-0.21,0.4-0.28,0.61-0.16c0.21,0.12,0.28,0.39,0.16,0.61l-17.82,30.22C121.2,388.37,121.04,388.45,120.89,388.44z"/>
		</g>
		<g>
			<g>
				<path style="fill:#FFFFFF;" d="M125.94,380.07c-0.21-0.01-0.39-0.16-0.42-0.38l-1.6-10.8c-0.04-0.24,0.13-0.47,0.37-0.5
					c0.24-0.04,0.47,0.13,0.5,0.37l1.6,10.8c0.04,0.24-0.13,0.47-0.37,0.5C125.99,380.07,125.97,380.07,125.94,380.07z"/>
			</g>
			<g>
				<path style="fill:#FFFFFF;" d="M130.89,371.67c-0.2-0.01-0.38-0.15-0.42-0.36l-1.55-8.04c-0.05-0.24,0.11-0.47,0.35-0.52
					c0.24-0.05,0.47,0.11,0.52,0.35l1.55,8.04c0.05,0.24-0.11,0.47-0.35,0.52C130.96,371.67,130.93,371.67,130.89,371.67z"/>
			</g>
		</g>
		<g>
			<g>
				<path style="fill:#FFFFFF;" d="M125.85,380.02c-0.17-0.01-0.33-0.11-0.4-0.29c-0.09-0.23,0.03-0.48,0.26-0.57l10.22-3.83
					c0.23-0.09,0.48,0.03,0.57,0.26c0.09,0.23-0.03,0.48-0.26,0.57l-10.22,3.83C125.97,380.01,125.91,380.02,125.85,380.02z"/>
			</g>
			<g>
				<path style="fill:#FFFFFF;" d="M130.81,371.62c-0.18-0.01-0.35-0.12-0.4-0.31c-0.08-0.23,0.05-0.48,0.28-0.56l7.79-2.54
					c0.23-0.08,0.48,0.05,0.56,0.28c0.08,0.23-0.05,0.48-0.28,0.56l-7.79,2.54C130.91,371.61,130.86,371.62,130.81,371.62z"/>
			</g>
		</g>
	</g>
	<g>
		
			<ellipse transform="matrix(0.876 -0.4823 0.4823 0.876 -168.1388 73.1055)" style="fill:#74A0AA;" cx="58.1" cy="363.53" rx="9.1" ry="15.66"/>
		<g>
			<path style="fill:#FFFFFF;" d="M65.98,377.46c-0.03,0.05-0.08,0.1-0.14,0.13c-0.19,0.1-0.43,0.04-0.53-0.15l-14.95-27.15
				c-0.1-0.19-0.03-0.43,0.15-0.53c0.19-0.1,0.43-0.04,0.53,0.15l14.95,27.15C66.07,377.19,66.06,377.34,65.98,377.46z"/>
		</g>
		<g>
			<g>
				<path style="fill:#FFFFFF;" d="M61.89,369.85c-0.1,0.16-0.3,0.22-0.48,0.15l-8.93-3.65c-0.2-0.08-0.3-0.31-0.21-0.51
					c0.08-0.2,0.31-0.3,0.51-0.21l8.93,3.65c0.2,0.08,0.3,0.31,0.21,0.51C61.91,369.81,61.9,369.83,61.89,369.85z"/>
			</g>
			<g>
				<path style="fill:#FFFFFF;" d="M57.73,362.3c-0.1,0.15-0.29,0.22-0.46,0.16l-6.81-2.44c-0.2-0.07-0.31-0.3-0.24-0.5
					c0.07-0.2,0.3-0.31,0.5-0.24l6.81,2.44c0.2,0.07,0.31,0.3,0.24,0.5C57.76,362.25,57.75,362.27,57.73,362.3z"/>
			</g>
		</g>
		<g>
			<g>
				<path style="fill:#FFFFFF;" d="M61.81,369.89c-0.08,0.13-0.24,0.2-0.4,0.17c-0.21-0.04-0.35-0.24-0.32-0.45l1.69-9.5
					c0.04-0.21,0.24-0.35,0.45-0.32c0.21,0.04,0.35,0.24,0.32,0.45l-1.69,9.5C61.86,369.8,61.84,369.85,61.81,369.89z"/>
			</g>
			<g>
				<path style="fill:#FFFFFF;" d="M57.66,362.34c-0.09,0.13-0.25,0.21-0.41,0.17c-0.21-0.05-0.34-0.26-0.3-0.47l1.58-7.06
					c0.05-0.21,0.26-0.34,0.47-0.3s0.34,0.26,0.3,0.47l-1.58,7.06C57.7,362.26,57.68,362.3,57.66,362.34z"/>
			</g>
		</g>
	</g>
	<g>
		
			<ellipse transform="matrix(0.9754 -0.2202 0.2202 0.9754 -86.4534 30.2444)" style="fill:#74A0AA;" cx="92.41" cy="402.83" rx="24.79" ry="42.67"/>
		<g>
			<path style="fill:#FFFFFF;" d="M102.51,445.26c-0.13,0.11-0.29,0.2-0.47,0.24c-0.57,0.13-1.14-0.23-1.27-0.8l-18.6-82.38
				c-0.13-0.57,0.23-1.14,0.8-1.27c0.57-0.13,1.14,0.23,1.27,0.8l18.6,82.38C102.93,444.61,102.79,445.01,102.51,445.26z"/>
		</g>
		<g>
			<g>
				<path style="fill:#FFFFFF;" d="M97.55,422.24c-0.38,0.33-0.95,0.36-1.36,0.03l-20.62-16.3c-0.46-0.36-0.54-1.03-0.18-1.5
					c0.36-0.46,1.03-0.54,1.5-0.18l20.62,16.3c0.46,0.36,0.54,1.03,0.18,1.5C97.65,422.15,97.6,422.2,97.55,422.24z"/>
			</g>
			<g>
				<path style="fill:#FFFFFF;" d="M92.38,399.34c-0.36,0.32-0.91,0.36-1.32,0.06l-15.98-11.55c-0.48-0.34-0.58-1.01-0.24-1.49
					c0.34-0.48,1.01-0.58,1.49-0.24l15.98,11.55c0.48,0.34,0.58,1.01,0.24,1.49C92.5,399.22,92.44,399.28,92.38,399.34z"/>
			</g>
		</g>
		<g>
			<g>
				<path style="fill:#FFFFFF;" d="M97.32,422.29c-0.31,0.27-0.77,0.35-1.17,0.15c-0.53-0.26-0.74-0.9-0.48-1.42l11.62-23.58
					c0.26-0.52,0.9-0.75,1.42-0.48c0.53,0.26,0.75,0.9,0.48,1.43l-11.62,23.58C97.51,422.09,97.42,422.2,97.32,422.29z"/>
			</g>
			<g>
				<path style="fill:#FFFFFF;" d="M92.15,399.39c-0.33,0.29-0.81,0.35-1.21,0.13c-0.52-0.28-0.7-0.93-0.42-1.44l9.47-17.29
					c0.28-0.52,0.93-0.7,1.44-0.42s0.7,0.93,0.42,1.44l-9.47,17.29C92.32,399.21,92.24,399.31,92.15,399.39z"/>
			</g>
		</g>
	</g>
	<g>
		
			<ellipse transform="matrix(0.5939 -0.8046 0.8046 0.5939 -312.5254 235.0725)" style="fill:#385A65;" cx="76.58" cy="427.09" rx="15.56" ry="26.79"/>
		<g>
			<path style="fill:#FFFFFF;" d="M98.8,443.1c-0.01,0.11-0.06,0.21-0.12,0.3c-0.22,0.3-0.64,0.36-0.93,0.14l-42.67-31.49
				c-0.3-0.22-0.36-0.64-0.14-0.93c0.22-0.3,0.64-0.36,0.93-0.14l42.67,31.49C98.74,442.62,98.83,442.86,98.8,443.1z"/>
		</g>
		<g>
			<g>
				<path style="fill:#FFFFFF;" d="M86.99,434.2c-0.04,0.31-0.31,0.56-0.63,0.57l-16.49,0.73c-0.37,0.02-0.68-0.27-0.7-0.64
					c-0.02-0.37,0.27-0.68,0.64-0.7l16.49-0.73c0.37-0.02,0.68,0.27,0.7,0.64C87,434.12,87,434.16,86.99,434.2z"/>
			</g>
			<g>
				<path style="fill:#FFFFFF;" d="M75.13,425.44c-0.04,0.3-0.29,0.55-0.6,0.57l-12.33,1.08c-0.37,0.03-0.69-0.24-0.72-0.61
					c-0.03-0.37,0.24-0.69,0.61-0.72l12.33-1.08c0.37-0.03,0.69,0.24,0.72,0.61C75.14,425.34,75.14,425.39,75.13,425.44z"/>
			</g>
		</g>
		<g>
			<g>
				<path style="fill:#FFFFFF;" d="M86.9,434.32c-0.04,0.26-0.22,0.48-0.49,0.55c-0.36,0.09-0.72-0.12-0.81-0.48l-4.16-15.97
					c-0.09-0.35,0.12-0.72,0.48-0.82c0.36-0.09,0.72,0.12,0.82,0.48l4.16,15.97C86.91,434.15,86.92,434.23,86.9,434.32z"/>
			</g>
			<g>
				<path style="fill:#FFFFFF;" d="M75.04,425.56c-0.04,0.27-0.24,0.5-0.52,0.56c-0.36,0.08-0.72-0.15-0.79-0.51l-2.6-12.1
					c-0.08-0.36,0.15-0.72,0.51-0.79c0.36-0.08,0.72,0.15,0.79,0.51l2.6,12.1C75.05,425.41,75.05,425.49,75.04,425.56z"/>
			</g>
		</g>
	</g>
</g>
<g>
	<g>
		<path style="fill:#FFFFFF;" d="M390.51,88.28c0-11.08-13.08-20.06-30.52-20.06s-31.57,8.98-31.57,20.06
			c0,11.08,14.13,20.06,31.57,20.06c3.36,0,6.6-0.34,9.64-0.96c-3.38,6.04-7.65,8.59-7.65,8.59c18.42-4.27,25.76-16.92,25.76-16.92
			l0.11-0.11C390.42,94.34,390.51,92.13,390.51,88.28z"/>
		<path style="fill:#231F20;" d="M361.98,116.97c-0.4,0-0.77-0.24-0.93-0.63c-0.18-0.46-0.01-0.98,0.42-1.23
			c0.03-0.02,3.21-1.97,6.15-6.35c-2.49,0.39-5.05,0.58-7.62,0.58c-17.96,0-32.57-9.45-32.57-21.06s14.61-21.06,32.57-21.06
			c17.67,0,31.52,9.25,31.52,21.06c0,4.05-0.12,6.38-2.79,11.15c-0.04,0.08-0.1,0.16-0.17,0.22l-0.02,0.02
			c-0.85,1.39-8.44,13.12-26.33,17.27C362.13,116.96,362.05,116.97,361.98,116.97z M369.63,106.38c0.32,0,0.62,0.15,0.81,0.41
			c0.23,0.32,0.26,0.74,0.07,1.08c-1.41,2.52-2.97,4.46-4.34,5.88c14.55-4.91,20.65-15.08,20.71-15.2c0.04-0.07,0.1-0.14,0.16-0.21
			l0.01-0.01c2.36-4.26,2.46-6.28,2.46-10.06c0-10.69-12.97-19.06-29.52-19.06c-16.86,0-30.57,8.55-30.57,19.06
			c0,10.51,13.71,19.06,30.57,19.06c3.21,0,6.39-0.31,9.44-0.94C369.5,106.39,369.57,106.38,369.63,106.38z M387.85,98.94
			L387.85,98.94L387.85,98.94z"/>
	</g>
	<g>
		<circle style="fill:#231F20;" cx="344" cy="87.28" r="2.55"/>
		<circle style="fill:#231F20;" cx="354.44" cy="87.28" r="2.55"/>
		<circle style="fill:#231F20;" cx="364.89" cy="87.28" r="2.55"/>
		<circle style="fill:#231F20;" cx="375.34" cy="87.28" r="2.55"/>
	</g>
</g>
<g>
	<g>
		<path style="fill:#FFFFFF;" d="M114.23,126.66c0-11.08,13.08-20.06,30.52-20.06s31.57,8.98,31.57,20.06
			c0,11.08-14.13,20.06-31.57,20.06c-3.36,0-6.6-0.34-9.64-0.96c3.38,6.04,7.65,8.59,7.65,8.59c-18.42-4.27-25.76-16.92-25.76-16.92
			l-0.11-0.11C114.32,132.72,114.23,130.52,114.23,126.66z"/>
		<path style="fill:#231F20;" d="M142.76,155.35c-0.07,0-0.15-0.01-0.23-0.03c-17.89-4.15-25.49-15.89-26.33-17.27l-0.02-0.02
			c-0.07-0.06-0.12-0.14-0.17-0.22c-2.66-4.77-2.79-7.1-2.79-11.15c0-11.81,13.84-21.06,31.52-21.06c17.96,0,32.57,9.45,32.57,21.06
			s-14.61,21.06-32.57,21.06c-2.58,0-5.13-0.19-7.62-0.58c2.94,4.39,6.11,6.33,6.15,6.36c0.42,0.25,0.6,0.78,0.41,1.23
			C143.53,155.11,143.16,155.35,142.76,155.35z M117.7,136.72L117.7,136.72c0.07,0.07,0.12,0.14,0.16,0.21
			c0.07,0.11,6.16,10.29,20.71,15.2c-1.37-1.42-2.93-3.35-4.34-5.88c-0.19-0.34-0.17-0.76,0.06-1.08c0.23-0.32,0.62-0.47,1.01-0.39
			c3.05,0.62,6.23,0.94,9.44,0.94c16.86,0,30.57-8.55,30.57-19.06c0-10.51-13.71-19.06-30.57-19.06c-16.55,0-29.52,8.37-29.52,19.06
			C115.23,130.44,115.34,132.46,117.7,136.72z"/>
	</g>
	<g>
		<circle style="fill:#231F20;" cx="160.74" cy="125.67" r="2.55"/>
		<circle style="fill:#231F20;" cx="150.3" cy="125.67" r="2.55"/>
		<circle style="fill:#231F20;" cx="139.85" cy="125.67" r="2.55"/>
		<circle style="fill:#231F20;" cx="129.41" cy="125.67" r="2.55"/>
	</g>
</g>
<g style="opacity:0.61;">
	<path style="fill:#FFFFFF;" d="M268.77,352.17c22.23,0,40.33,18.06,40.33,40.24c0,22.39-18.04,40.48-40.35,40.47
		c-22.32-0.01-40.36-18.09-40.35-40.43C228.4,370.21,246.48,352.17,268.77,352.17z M290.93,394.86c-0.28,2.78-0.51,5.52-0.84,8.24
		c-0.33,2.72-0.94,5.4-1.67,8.07c2.92,0.88,5.7,1.97,8.37,3.36c2.48-3.16,4.37-6.61,5.67-10.37c1.04-3,1.66-6.1,1.87-9.3
		C299.82,394.86,295.35,394.86,290.93,394.86z M233.17,390.16c4.52,0,9.01,0,13.53,0c0.18-5.51,0.92-10.92,2.4-16.24
		c-2.92-0.88-5.71-1.97-8.41-3.38C236.2,376.35,233.69,382.86,233.17,390.16z M246.69,394.92c-4.52,0-9,0-13.52,0
		c0.55,7.32,3.06,13.83,7.55,19.61c2.69-1.42,5.5-2.49,8.37-3.37C247.6,405.82,246.87,400.41,246.69,394.92z M296.8,370.56
		c-2.68,1.4-5.48,2.48-8.39,3.37c0.74,2.67,1.34,5.33,1.67,8.05c0.33,2.71,0.56,5.43,0.84,8.13c4.43,0,8.91,0,13.39,0
		C304.31,384.27,300.79,375.09,296.8,370.56z M271.12,394.88c0,4.56,0,9.06,0,13.59c4.29,0.13,8.51,0.62,12.72,1.52
		c1.39-4.96,2.09-9.99,2.27-15.11C281.07,394.88,276.11,394.88,271.12,394.88z M253.69,409.99c4.19-0.91,8.41-1.39,12.68-1.52
		c0-4.55,0-9.06,0-13.57c-5.01,0-9.98,0-14.95,0C251.15,397.3,252.66,407.4,253.69,409.99z M286.11,390.15
		c-0.19-5.13-0.89-10.13-2.27-15.05c-4.22,0.91-8.45,1.39-12.72,1.52c0,4.53,0,9.02,0,13.52
		C276.11,390.15,281.09,390.15,286.11,390.15z M253.66,375.11c-1.39,4.95-2.08,9.95-2.27,15.05c5.02,0,10,0,14.99,0
		c0-4.52,0-9.01,0-13.53C262.09,376.5,257.87,376.01,253.66,375.11z M282.36,414.48c-3.75-0.78-7.47-1.2-11.25-1.31
		c0,4.91,0,9.77,0,14.66c0.16-0.05,0.3-0.09,0.43-0.13c1.87-0.66,3.42-1.81,4.79-3.21c2.25-2.31,3.84-5.04,5.16-7.96
		C281.79,415.86,282.06,415.19,282.36,414.48z M282.33,370.62c-0.03-0.09-0.04-0.14-0.06-0.19c-1.07-2.71-2.37-5.3-4.11-7.65
		c-1.48-2-3.2-3.75-5.45-4.88c-0.5-0.25-1.04-0.44-1.59-0.67c0,4.95,0,9.81,0,14.7C274.9,371.81,278.61,371.39,282.33,370.62z
		 M266.38,427.83c0-4.91,0-9.77,0-14.66c-3.78,0.12-7.5,0.54-11.21,1.31c0.05,0.16,0.09,0.28,0.14,0.4
		c0.51,1.13,0.98,2.27,1.54,3.38c1.45,2.86,3.23,5.48,5.74,7.53C263.71,426.69,264.94,427.41,266.38,427.83z M266.39,371.93
		c0-4.91,0-9.76,0-14.66c-0.26,0.09-0.5,0.15-0.73,0.24c-1.95,0.76-3.53,2.03-4.92,3.56c-2.25,2.48-3.83,5.37-5.13,8.43
		c-0.15,0.36-0.29,0.72-0.45,1.11C258.88,371.39,262.59,371.81,266.39,371.93z M243.94,366.93c2.15,1.04,4.33,1.86,6.52,2.5
		c0.84-1.78,1.63-3.55,2.5-5.28c0.88-1.74,1.97-3.36,3.15-4.93C251.52,360.93,247.49,363.51,243.94,366.93z M281.38,359.21
		c2.41,3.11,4.16,6.57,5.57,10.24c2.27-0.67,4.45-1.48,6.61-2.52C290,363.5,285.97,360.93,281.38,359.21z M243.98,418.14
		c3.54,3.4,7.54,5.95,12.07,7.65c-2.37-3.09-4.11-6.51-5.5-10.16C248.29,416.3,246.14,417.12,243.98,418.14z M281.45,425.8
		c4.55-1.71,8.54-4.27,12.04-7.63c-1.17-0.7-5.79-2.43-6.57-2.47C285.56,419.29,283.82,422.71,281.45,425.8z"/>
</g>
<circle style="fill:#231F20;" cx="333.82" cy="131.27" r="18.94"/>
<g>
	<circle style="fill:#F9D087;" cx="322.29" cy="140.36" r="3.22"/>
	<path style="fill:#231F20;" d="M322.29,144.58c-2.33,0-4.22-1.89-4.22-4.22s1.9-4.22,4.22-4.22s4.22,1.9,4.22,4.22
		S324.62,144.58,322.29,144.58z M322.29,138.13c-1.23,0-2.22,1-2.22,2.22c0,1.23,1,2.22,2.22,2.22s2.22-1,2.22-2.22
		C324.51,139.13,323.52,138.13,322.29,138.13z"/>
</g>
<g>
	<circle style="fill:#F9D087;" cx="345.76" cy="140.36" r="3.19"/>
	<path style="fill:#231F20;" d="M345.76,144.55c-2.31,0-4.19-1.88-4.19-4.19s1.88-4.19,4.19-4.19s4.19,1.88,4.19,4.19
		S348.08,144.55,345.76,144.55z M345.76,138.16c-1.21,0-2.19,0.98-2.19,2.19c0,1.21,0.98,2.19,2.19,2.19s2.19-0.98,2.19-2.19
		C347.96,139.15,346.97,138.16,345.76,138.16z"/>
</g>
<g>
	<path style="fill:#F9D087;" d="M335,155.11h-2.88c-5.13,0-9.28-4.16-9.28-9.28v-9.37c0-5.13,4.16-9.28,9.28-9.28H335
		c5.13,0,9.28,4.16,9.28,9.28v9.37C344.28,150.95,340.13,155.11,335,155.11z"/>
	<path style="fill:#231F20;" d="M335,156.11h-2.88c-5.67,0-10.28-4.61-10.28-10.28v-9.37c0-5.67,4.61-10.28,10.28-10.28H335
		c5.67,0,10.28,4.61,10.28,10.28v9.37C345.28,151.5,340.67,156.11,335,156.11z M332.12,128.18c-4.57,0-8.28,3.72-8.28,8.28v9.37
		c0,4.57,3.72,8.28,8.28,8.28H335c4.57,0,8.28-3.72,8.28-8.28v-9.37c0-4.57-3.72-8.28-8.28-8.28H332.12z"/>
</g>
<g>
	<path style="fill:#F9D087;" d="M335,155.11h-2.88c-5.13,0-9.28-4.16-9.28-9.28v-9.37c0-5.13,4.16-9.28,9.28-9.28H335
		c5.13,0,9.28,4.16,9.28,9.28v9.37C344.28,150.95,340.13,155.11,335,155.11z"/>
	<path style="fill:#231F20;" d="M335,156.11h-2.88c-5.67,0-10.28-4.61-10.28-10.28v-9.37c0-5.67,4.61-10.28,10.28-10.28H335
		c5.67,0,10.28,4.61,10.28,10.28v9.37C345.28,151.5,340.67,156.11,335,156.11z M332.12,128.18c-4.57,0-8.28,3.72-8.28,8.28v9.37
		c0,4.57,3.72,8.28,8.28,8.28H335c4.57,0,8.28-3.72,8.28-8.28v-9.37c0-4.57-3.72-8.28-8.28-8.28H332.12z"/>
</g>
<circle style="fill:#342939;" cx="331.64" cy="139.77" r="0.67"/>
<circle style="fill:#342939;" cx="335.29" cy="139.77" r="0.67"/>
<g>
	<path style="fill:#231F20;" d="M325.3,127.11c0,0,9.07,11.63,18.37,4.14s-16.6-6.46-16.6-6.46"/>
	<path style="fill:#231F20;" d="M331.07,129.96c0,0-8.48,6.98-8.36,11.76l-1.06-14.47l2-2.58l7.65-1.55"/>
	<path style="fill:#231F20;" d="M335.96,129.96c0,0,8.48,6.98,8.36,11.76l1.06-14.47l-2-2.58l-7.65-1.55"/>
</g>
<polyline style="fill:#231F20;" points="324.09,134.8 324.09,143.58 322.64,143.58 322.64,136.33 "/>
<polyline style="fill:#231F20;" points="343.03,136.33 343.03,143.58 344.48,143.58 344.48,134.8 "/>
<g>
	<path style="fill:#231F20;" d="M334.39,157.53v-0.02c-0.15,0.01-0.29,0.02-0.44,0.02H334.39z"/>
	<path style="fill:#231F20;" d="M332.55,157.53h0.44c-0.15,0-0.29-0.02-0.44-0.02V157.53z"/>
	<path style="fill:#231F20;" d="M342.5,133v12.72c0,0.97-0.79,1.76-1.76,1.76h-1.22c0-1.85-1.5-3.35-3.35-3.35h-1.78h-0.22
		c-0.04,0-0.36-0.02-0.71-0.04c-0.35,0.02-0.67,0.04-0.71,0.04h-0.22h-1.78c-1.85,0-3.35,1.5-3.35,3.35h-1.22
		c-0.97,0-1.76-0.79-1.76-1.76V133h-2.08v13.89c0,5.72,4.53,10.38,10.19,10.61c0.15,0.01,0.29,0.02,0.44,0.02h0.96
		c0.15,0,0.29-0.02,0.44-0.02c5.67-0.23,10.19-4.89,10.19-10.61V133H342.5z"/>
</g>
<path style="fill:#FFFFFF;" d="M329.87,146.82h7.07C336.94,146.82,333.45,152.56,329.87,146.82z"/>
</svg>
